<svg xmlns="http://www.w3.org/2000/svg" width="64" height="64" viewBox="0 0 64 64" fill="none">
  <defs>
    <linearGradient id="bg" x1="10" y1="8" x2="54" y2="58" gradientUnits="userSpaceOnUse">
      <stop stop-color="#0F172A"/>
      <stop offset="1" stop-color="#082F49"/>
    </linearGradient>
    <linearGradient id="plane" x1="20" y1="19" x2="45" y2="44" gradientUnits="userSpaceOnUse">
      <stop stop-color="#BAE6FD"/>
      <stop offset="0.55" stop-color="#38BDF8"/>
      <stop offset="1" stop-color="#0EA5E9"/>
    </linearGradient>
    <filter id="glow" x="11" y="13" width="43" height="38" filterUnits="userSpaceOnUse" color-interpolation-filters="sRGB">
      <feFlood flood-opacity="0" result="BackgroundImageFix"/>
      <feGaussianBlur in="SourceGraphic" stdDeviation="2.2"/>
    </filter>
  </defs>

  <rect x="4" y="4" width="56" height="56" rx="18" fill="url(#bg)"/>
  <rect x="4.75" y="4.75" width="54.5" height="54.5" rx="17.25" stroke="#7DD3FC" stroke-opacity="0.18"/>
  <circle cx="48" cy="17" r="3" fill="#67E8F9"/>
  <circle cx="48" cy="17" r="6" fill="#22D3EE" opacity="0.18"/>

  <path d="M20.5 45.5L24.3 33.8L48 18.5L43.5 42L31.7 36.3L26.1 40.9L26.8 33.2L40.6 23.8L23.8 31.1L20.5 45.5Z" fill="#0B1120" opacity="0.24" filter="url(#glow)"/>
  <path d="M20.5 44L24.1 32.7L47 18L42.7 40.8L31.4 35.4L25.9 39.8L26.5 32.6L39.8 23.6L23.7 30.6L20.5 44Z" fill="url(#plane)"/>
  <path d="M25.9 39.8L28.3 34.7L31.4 35.4L25.9 39.8Z" fill="#E0F2FE"/>
</svg>
